<svg width="24" height="24" viewBox="0 0 24 24" fill="none" xmlns="http://www.w3.org/2000/svg">
<path fill-rule="evenodd" clip-rule="evenodd" d="M4.658 20.7989C4.91175 21.0517 5.24781 21.1921 5.60615 21.1921C5.83568 21.1921 6.0623 21.1321 6.26278 21.0207L11.7802 17.9273L17.2444 21.0139C17.5563 21.1911 17.9175 21.2337 18.2633 21.1379C18.608 21.043 18.8947 20.8173 19.071 20.5054C19.1843 20.304 19.2443 20.0774 19.2443 19.8478L19.2395 6.74817C19.2395 4.19622 17.5989 2.79095 14.6198 2.79095H8.8893C5.95189 2.79095 4.26771 4.17298 4.26771 6.58256V19.8517C4.26674 20.2091 4.40523 20.5452 4.658 20.7989ZM12.9899 12.8143H10.5222C10.1212 12.8143 9.7958 12.4889 9.7958 12.088C9.7958 11.687 10.1212 11.3616 10.5222 11.3616H12.9899C13.3908 11.3616 13.7162 11.687 13.7162 12.088C13.7162 12.4889 13.3908 12.8143 12.9899 12.8143ZM9.21278 8.99529H14.2993C14.7002 8.99529 15.0256 8.66988 15.0256 8.26893C15.0256 7.86798 14.7002 7.54257 14.2993 7.54257H9.21278C8.81183 7.54257 8.48642 7.86798 8.48642 8.26893C8.48642 8.66988 8.81183 8.99529 9.21278 8.99529Z" fill="#791469"/>
</svg>
