<svg width="19" height="20" viewBox="0 0 19 20" fill="none" xmlns="http://www.w3.org/2000/svg">
<path fill-rule="evenodd" clip-rule="evenodd" d="M1.9278 11.8159L15.4418 19.2239C16.1828 19.6289 17.0598 19.5659 17.7328 19.0529C18.4078 18.5389 18.7058 17.7059 18.5108 16.8789L17.1209 11.0013C17.0781 10.8202 16.9161 10.6925 16.73 10.6933L7.9918 10.7309L7.9888 10.7309C7.5758 10.7309 7.2408 10.3969 7.2388 9.9839C7.2368 9.5689 7.5718 9.2329 7.9858 9.2309L16.7408 9.1923C16.9256 9.1915 17.0858 9.0642 17.1283 8.8844L18.5108 3.0389C18.7058 2.2119 18.4078 1.3779 17.7328 0.862904C17.3528 0.573904 16.9068 0.426905 16.4578 0.426904C16.1128 0.426904 15.7638 0.513904 15.4418 0.690904L1.9278 8.0989C1.2398 8.4769 0.828803 9.1709 0.828803 9.9579C0.828803 10.7439 1.2398 11.4389 1.9278 11.8159Z" fill="white"/>
</svg>
